<?xml version="1.0" encoding="UTF-8" standalone="no"?>
<svg
   xmlns:dc="http://purl.org/dc/elements/1.1/"
   xmlns:cc="http://creativecommons.org/ns#"
   xmlns:rdf="http://www.w3.org/1999/02/22-rdf-syntax-ns#"
   xmlns:svg="http://www.w3.org/2000/svg"
   xmlns="http://www.w3.org/2000/svg"
   xmlns:sodipodi="http://sodipodi.sourceforge.net/DTD/sodipodi-0.dtd"
   xmlns:inkscape="http://www.inkscape.org/namespaces/inkscape"
   viewBox="0.0 0.0 348.0 348.0"
   fill="none"
   version="1.1"
   id="svg6"
   sodipodi:docname="Mindlock.svg"
   inkscape:version="0.92.5 (2060ec1f9f, 2020-04-08)">
  <metadata
     id="metadata12">
    <rdf:RDF>
      <cc:Work
         rdf:about="">
        <dc:format>image/svg+xml</dc:format>
        <dc:type
           rdf:resource="http://purl.org/dc/dcmitype/StillImage" />
        <dc:title></dc:title>
      </cc:Work>
    </rdf:RDF>
  </metadata>
  <defs
     id="defs10">
    <inkscape:path-effect
       effect="spiro"
       id="path-effect858"
       is_visible="true" />
    <inkscape:path-effect
       is_visible="true"
       id="path-effect854"
       effect="spiro" />
    <inkscape:path-effect
       effect="spiro"
       id="path-effect850"
       is_visible="true" />
    <inkscape:path-effect
       is_visible="true"
       id="path-effect846"
       effect="spiro" />
    <inkscape:path-effect
       effect="spiro"
       id="path-effect842"
       is_visible="true" />
    <inkscape:path-effect
       is_visible="true"
       id="path-effect838"
       effect="spiro" />
    <inkscape:path-effect
       effect="spiro"
       id="path-effect834"
       is_visible="true" />
    <inkscape:path-effect
       is_visible="true"
       id="path-effect830"
       effect="spiro" />
    <inkscape:path-effect
       effect="spiro"
       id="path-effect826"
       is_visible="true" />
  </defs>
  <sodipodi:namedview
     pagecolor="#ffffff"
     bordercolor="#666666"
     borderopacity="1"
     objecttolerance="10"
     gridtolerance="10"
     guidetolerance="10"
     inkscape:pageopacity="0"
     inkscape:pageshadow="2"
     inkscape:window-width="1920"
     inkscape:window-height="1057"
     id="namedview8"
     showgrid="true"
     inkscape:zoom="2.4530352"
     inkscape:cx="150.76348"
     inkscape:cy="161.77025"
     inkscape:window-x="-8"
     inkscape:window-y="-8"
     inkscape:window-maximized="1"
     inkscape:current-layer="svg6">
    <inkscape:grid
       type="xygrid"
       id="grid822"
       spacingx="5"
       spacingy="5" />
  </sodipodi:namedview>
  <path
     d="M5.079 5.776h336.913v337.67H5.08z"
     stroke-width="2"
     stroke="#000"
     id="path2" />
  <path
     d="M282.734 40.554c0-8.376 6.966-15.165 15.56-15.165 4.126 0 8.084 1.597 11.001 4.441 2.918 2.844 4.558 6.702 4.558 10.724 0 8.376-6.966 15.165-15.56 15.165-8.593 0-15.559-6.79-15.559-15.165z"
     stroke-width="2"
     stroke="#000"
     id="path4" />
  <path
     style="fill:none;stroke:#000000;stroke-width:1px;stroke-linecap:butt;stroke-linejoin:miter;stroke-opacity:1"
     d="m 75,113 c -2.617994,0 -5.219867,1.07773 -7.071068,2.92893 C 66.077731,117.78013 65,120.38201 65,123 c 0,2.61799 1.077731,5.21987 2.928932,7.07107 C 69.780133,131.92227 72.382006,133 75,133 c 2.617994,0 5.219867,-1.07773 7.071068,-2.92893 C 83.922269,128.21987 85,125.61799 85,123 85,120.38201 83.922269,117.78013 82.071068,115.92893 80.219867,114.07773 77.617994,113 75,113 Z"
     id="path824"
     inkscape:connector-curvature="0"
     inkscape:path-effect="#path-effect826"
     inkscape:original-d="m 75,113 c -3.334333,-3.33233 -6.665667,6.66567 -10,10 -3.334333,3.33433 6.667667,6.66567 10,10 3.332333,3.33433 6.667667,-6.66767 10,-10 3.332333,-3.33233 -6.665667,-6.66767 -10,-10 z"
     transform="translate(0,-25)" />
  <path
     transform="translate(200,175)"
     inkscape:original-d="m 75,113 c -3.334333,-3.33233 -6.665667,6.66567 -10,10 -3.334333,3.33433 6.667667,6.66567 10,10 3.332333,3.33433 6.667667,-6.66767 10,-10 3.332333,-3.33233 -6.665667,-6.66767 -10,-10 z"
     inkscape:path-effect="#path-effect830"
     inkscape:connector-curvature="0"
     id="path828"
     d="m 75,113 c -2.617994,0 -5.219867,1.07773 -7.071068,2.92893 C 66.077731,117.78013 65,120.38201 65,123 c 0,2.61799 1.077731,5.21987 2.928932,7.07107 C 69.780133,131.92227 72.382006,133 75,133 c 2.617994,0 5.219867,-1.07773 7.071068,-2.92893 C 83.922269,128.21987 85,125.61799 85,123 85,120.38201 83.922269,117.78013 82.071068,115.92893 80.219867,114.07773 77.617994,113 75,113 Z"
     style="fill:none;stroke:#000000;stroke-width:1px;stroke-linecap:butt;stroke-linejoin:miter;stroke-opacity:1" />
  <path
     style="fill:none;stroke:#000000;stroke-width:1px;stroke-linecap:butt;stroke-linejoin:miter;stroke-opacity:1"
     d="m 75,113 c -2.617994,0 -5.219867,1.07773 -7.071068,2.92893 C 66.077731,117.78013 65,120.38201 65,123 c 0,2.61799 1.077731,5.21987 2.928932,7.07107 C 69.780133,131.92227 72.382006,133 75,133 c 2.617994,0 5.219867,-1.07773 7.071068,-2.92893 C 83.922269,128.21987 85,125.61799 85,123 85,120.38201 83.922269,117.78013 82.071068,115.92893 80.219867,114.07773 77.617994,113 75,113 Z"
     id="path832"
     inkscape:connector-curvature="0"
     inkscape:path-effect="#path-effect834"
     inkscape:original-d="m 75,113 c -3.334333,-3.33233 -6.665667,6.66567 -10,10 -3.334333,3.33433 6.667667,6.66567 10,10 3.332333,3.33433 6.667667,-6.66767 10,-10 3.332333,-3.33233 -6.665667,-6.66767 -10,-10 z"
     transform="translate(100,175)" />
  <path
     transform="translate(200,75)"
     inkscape:original-d="m 75,113 c -3.334333,-3.33233 -6.665667,6.66567 -10,10 -3.334333,3.33433 6.667667,6.66567 10,10 3.332333,3.33433 6.667667,-6.66767 10,-10 3.332333,-3.33233 -6.665667,-6.66767 -10,-10 z"
     inkscape:path-effect="#path-effect838"
     inkscape:connector-curvature="0"
     id="path836"
     d="m 75,113 c -2.617994,0 -5.219867,1.07773 -7.071068,2.92893 C 66.077731,117.78013 65,120.38201 65,123 c 0,2.61799 1.077731,5.21987 2.928932,7.07107 C 69.780133,131.92227 72.382006,133 75,133 c 2.617994,0 5.219867,-1.07773 7.071068,-2.92893 C 83.922269,128.21987 85,125.61799 85,123 85,120.38201 83.922269,117.78013 82.071068,115.92893 80.219867,114.07773 77.617994,113 75,113 Z"
     style="fill:none;stroke:#000000;stroke-width:1px;stroke-linecap:butt;stroke-linejoin:miter;stroke-opacity:1" />
  <path
     style="fill:none;stroke:#000000;stroke-width:1px;stroke-linecap:butt;stroke-linejoin:miter;stroke-opacity:1"
     d="m 75,113 c -2.617994,0 -5.219867,1.07773 -7.071068,2.92893 C 66.077731,117.78013 65,120.38201 65,123 c 0,2.61799 1.077731,5.21987 2.928932,7.07107 C 69.780133,131.92227 72.382006,133 75,133 c 2.617994,0 5.219867,-1.07773 7.071068,-2.92893 C 83.922269,128.21987 85,125.61799 85,123 85,120.38201 83.922269,117.78013 82.071068,115.92893 80.219867,114.07773 77.617994,113 75,113 Z"
     id="path840"
     inkscape:connector-curvature="0"
     inkscape:path-effect="#path-effect842"
     inkscape:original-d="m 75,113 c -3.334333,-3.33233 -6.665667,6.66567 -10,10 -3.334333,3.33433 6.667667,6.66567 10,10 3.332333,3.33433 6.667667,-6.66767 10,-10 3.332333,-3.33233 -6.665667,-6.66767 -10,-10 z"
     transform="translate(100,75)" />
  <path
     transform="translate(0,175)"
     inkscape:original-d="m 75,113 c -3.334333,-3.33233 -6.665667,6.66567 -10,10 -3.334333,3.33433 6.667667,6.66567 10,10 3.332333,3.33433 6.667667,-6.66767 10,-10 3.332333,-3.33233 -6.665667,-6.66767 -10,-10 z"
     inkscape:path-effect="#path-effect846"
     inkscape:connector-curvature="0"
     id="path844"
     d="m 75,113 c -2.617994,0 -5.219867,1.07773 -7.071068,2.92893 C 66.077731,117.78013 65,120.38201 65,123 c 0,2.61799 1.077731,5.21987 2.928932,7.07107 C 69.780133,131.92227 72.382006,133 75,133 c 2.617994,0 5.219867,-1.07773 7.071068,-2.92893 C 83.922269,128.21987 85,125.61799 85,123 85,120.38201 83.922269,117.78013 82.071068,115.92893 80.219867,114.07773 77.617994,113 75,113 Z"
     style="fill:none;stroke:#000000;stroke-width:1px;stroke-linecap:butt;stroke-linejoin:miter;stroke-opacity:1" />
  <path
     style="fill:none;stroke:#000000;stroke-width:1px;stroke-linecap:butt;stroke-linejoin:miter;stroke-opacity:1"
     d="m 75,113 c -2.617994,0 -5.219867,1.07773 -7.071068,2.92893 C 66.077731,117.78013 65,120.38201 65,123 c 0,2.61799 1.077731,5.21987 2.928932,7.07107 C 69.780133,131.92227 72.382006,133 75,133 c 2.617994,0 5.219867,-1.07773 7.071068,-2.92893 C 83.922269,128.21987 85,125.61799 85,123 85,120.38201 83.922269,117.78013 82.071068,115.92893 80.219867,114.07773 77.617994,113 75,113 Z"
     id="path848"
     inkscape:connector-curvature="0"
     inkscape:path-effect="#path-effect850"
     inkscape:original-d="m 75,113 c -3.334333,-3.33233 -6.665667,6.66567 -10,10 -3.334333,3.33433 6.667667,6.66567 10,10 3.332333,3.33433 6.667667,-6.66767 10,-10 3.332333,-3.33233 -6.665667,-6.66767 -10,-10 z"
     transform="translate(0,75)" />
  <path
     transform="translate(200,-25)"
     inkscape:original-d="m 75,113 c -3.334333,-3.33233 -6.665667,6.66567 -10,10 -3.334333,3.33433 6.667667,6.66567 10,10 3.332333,3.33433 6.667667,-6.66767 10,-10 3.332333,-3.33233 -6.665667,-6.66767 -10,-10 z"
     inkscape:path-effect="#path-effect854"
     inkscape:connector-curvature="0"
     id="path852"
     d="m 75,113 c -2.617994,0 -5.219867,1.07773 -7.071068,2.92893 C 66.077731,117.78013 65,120.38201 65,123 c 0,2.61799 1.077731,5.21987 2.928932,7.07107 C 69.780133,131.92227 72.382006,133 75,133 c 2.617994,0 5.219867,-1.07773 7.071068,-2.92893 C 83.922269,128.21987 85,125.61799 85,123 85,120.38201 83.922269,117.78013 82.071068,115.92893 80.219867,114.07773 77.617994,113 75,113 Z"
     style="fill:none;stroke:#000000;stroke-width:1px;stroke-linecap:butt;stroke-linejoin:miter;stroke-opacity:1" />
  <path
     style="fill:none;stroke:#000000;stroke-width:1px;stroke-linecap:butt;stroke-linejoin:miter;stroke-opacity:1"
     d="m 75,113 c -2.617994,0 -5.219867,1.07773 -7.071068,2.92893 C 66.077731,117.78013 65,120.38201 65,123 c 0,2.61799 1.077731,5.21987 2.928932,7.07107 C 69.780133,131.92227 72.382006,133 75,133 c 2.617994,0 5.219867,-1.07773 7.071068,-2.92893 C 83.922269,128.21987 85,125.61799 85,123 85,120.38201 83.922269,117.78013 82.071068,115.92893 80.219867,114.07773 77.617994,113 75,113 Z"
     id="path856"
     inkscape:connector-curvature="0"
     inkscape:path-effect="#path-effect858"
     inkscape:original-d="m 75,113 c -3.334333,-3.33233 -6.665667,6.66567 -10,10 -3.334333,3.33433 6.667667,6.66567 10,10 3.332333,3.33433 6.667667,-6.66767 10,-10 3.332333,-3.33233 -6.665667,-6.66767 -10,-10 z"
     transform="translate(100,-25)" />
</svg>
